<svg width="19" height="20" viewBox="0 0 19 20" fill="none" xmlns="http://www.w3.org/2000/svg">
<path d="M4 18.3063L4 10C4 9.05719 4 8.58579 4.29289 8.29289C4.58579 8 5.05719 8 6 8L13 8C13.9428 8 14.4142 8 14.7071 8.29289C15 8.58579 15 9.05719 15 10L15 18.3063C15 18.6228 15 18.7811 14.8962 18.856C14.7924 18.9308 14.6422 18.8807 14.3419 18.7806L12.1738 18.0579C12.0878 18.0293 12.0448 18.0149 12.0005 18.0162C11.9561 18.0175 11.9141 18.0344 11.8299 18.068L9.6857 18.9257C9.594 18.9624 9.54815 18.9807 9.5 18.9807C9.45185 18.9807 9.406 18.9624 9.3143 18.9257L7.17005 18.068C7.08592 18.0344 7.04385 18.0175 6.99952 18.0162C6.95519 18.0149 6.91221 18.0293 6.82625 18.0579L4.65811 18.7806C4.3578 18.8807 4.20764 18.9308 4.10382 18.856C4 18.7811 4 18.6228 4 18.3063Z" fill="#2A4157" fill-opacity="0.24" stroke="#222222"/>
<rect x="4" y="1" width="11" height="4" rx="1" fill="#2A4157" fill-opacity="0.24"/>
<path d="M15.5 12H16C16.9428 12 17.4142 12 17.7071 11.7071C18 11.4142 18 10.9428 18 10V9C18 7.11438 18 6.17157 17.4142 5.58579C16.8284 5 15.8856 5 14 5H5C3.11438 5 2.17157 5 1.58579 5.58579C1 6.17157 1 7.11438 1 9V11C1 11.4714 1 11.7071 1.14645 11.8536C1.29289 12 1.5286 12 2 12H3.5" stroke="#222222"/>
<path d="M7 12L11 12" stroke="#222222" stroke-linecap="round"/>
<path d="M7 15L12 15" stroke="#222222" stroke-linecap="round"/>
<path d="M15 5V4.6C15 2.90294 15 2.05442 14.4728 1.52721C13.9456 1 13.0971 1 11.4 1H7.6C5.90294 1 5.05442 1 4.52721 1.52721C4 2.05442 4 2.90294 4 4.6V5" stroke="#222222"/>
</svg>
