<svg width="21" height="22" viewBox="0 0 21 22" fill="none" xmlns="http://www.w3.org/2000/svg">
<ellipse rx="8" ry="8" transform="matrix(4.37114e-08 -1 -1 -4.37114e-08 12 11)" fill="#2A4157" fill-opacity="0.24"/>
<path d="M3.7 11C3.7 6.41604 7.41604 2.7 12 2.7C16.584 2.7 20.3 6.41604 20.3 11C20.3 15.584 16.584 19.3 12 19.3C7.41604 19.3 3.7 15.584 3.7 11Z" stroke="#2A4157" stroke-opacity="0.24" stroke-width="0.6"/>
<path d="M2.92893 18.0711C4.32746 19.4696 6.10929 20.422 8.0491 20.8079C9.98891 21.1937 11.9996 20.9957 13.8268 20.2388C15.6541 19.4819 17.2159 18.2002 18.3147 16.5557C19.4135 14.9112 20 12.9778 20 11C20 9.02219 19.4135 7.08879 18.3147 5.4443C17.2159 3.79981 15.6541 2.51808 13.8268 1.76121C11.9996 1.00433 9.98891 0.806295 8.0491 1.19215C6.10929 1.578 4.32746 2.53041 2.92893 3.92893" stroke="#222222" stroke-width="1.2"/>
<path d="M13 11L13.4685 10.6252L13.7684 11L13.4685 11.3748L13 11ZM1 11.6C0.668629 11.6 0.4 11.3314 0.4 11C0.4 10.6686 0.668629 10.4 1 10.4V11.6ZM9.46852 5.62518L13.4685 10.6252L12.5315 11.3748L8.53148 6.37482L9.46852 5.62518ZM13.4685 11.3748L9.46852 16.3748L8.53148 15.6252L12.5315 10.6252L13.4685 11.3748ZM13 11.6H1V10.4H13V11.6Z" fill="#222222"/>
</svg>
